<svg xmlns="http://www.w3.org/2000/svg" viewBox="0 0 128 128"><defs><linearGradient id="a" x1="0" x2="0" y1="0" y2="1"><stop offset="0%" stop-color="#5dbb63"/><stop offset="1" stop-color="#2e7d32"/></linearGradient><linearGradient id="b" x1="64" x2="64" y1="184" y2="288" gradientTransform="translate(0 -180)" gradientUnits="userSpaceOnUse" href="#a"/></defs><rect width="104" height="104" x="12" y="12" fill="url(#b)" rx="7.5"/><rect width="104.457" height="52.229" x="12" y="12" fill="#fff" opacity=".08" rx="8.5"/><rect width="36" height="36" x="24" y="36.5" fill="#367f3b" rx="5.5"/><path fill="#5dbb63" fill-opacity=".55" d="M42.336 44h3.828C47.18 44 48 44.819 48 45.836v3.828a1.83 1.83 0 0 1-1.836 1.836h-3.828a1.83 1.83 0 0 1-1.836-1.836v-3.828c0-1.017.819-1.836 1.836-1.836m-12 0h3.828C35.18 44 36 44.819 36 45.836v3.828a1.83 1.83 0 0 1-1.836 1.836h-3.828a1.83 1.83 0 0 1-1.836-1.836v-3.828c0-1.017.819-1.836 1.836-1.836m3.139 9.75c-.679 0-1.225.546-1.225 1.225v8.05c0 .679.546 1.225 1.225 1.225h2.05c.679 0 1.225-.546 1.225-1.225V58.25h3v4.775c0 .679.546 1.225 1.225 1.225h2.05c.679 0 1.225-.546 1.225-1.225v-8.05c0-.679-.546-1.225-1.225-1.225z"/><rect width="48" height="48" x="56" y="43.5" fill="#1b5e20" rx="7.5"/><path fill="#5dbb63" d="M80.448 53.5h5.104A2.443 2.443 0 0 1 88 55.948v5.104a2.443 2.443 0 0 1-2.448 2.448h-5.104A2.443 2.443 0 0 1 78 61.052v-5.104a2.443 2.443 0 0 1 2.448-2.448m-16 0h5.104A2.443 2.443 0 0 1 72 55.948v5.104a2.443 2.443 0 0 1-2.448 2.448h-5.104A2.443 2.443 0 0 1 62 61.052v-5.104a2.443 2.443 0 0 1 2.448-2.448m4.185 13A1.63 1.63 0 0 0 67 68.133v10.734a1.63 1.63 0 0 0 1.633 1.633h2.734A1.63 1.63 0 0 0 73 78.867V72.5h4v6.367a1.63 1.63 0 0 0 1.633 1.633h2.734A1.63 1.63 0 0 0 83 78.867V68.133a1.63 1.63 0 0 0-1.633-1.633Z"/></svg>